<svg width="35" height="36" viewBox="0 0 35 36" fill="none" xmlns="http://www.w3.org/2000/svg">
<path d="M35 14.757V8.59732C35 6.37059 33.1882 4.55884 30.9616 4.55884H4.03848C1.81175 4.55884 0 6.37059 0 8.59732V14.757C0 16.9837 1.81175 18.7954 4.03848 18.7954H30.9616C33.1884 18.7954 35 16.9838 35 14.757ZM33.1361 14.757C33.1361 15.9563 32.1611 16.9316 30.9615 16.9316H4.03848C2.83918 16.9316 1.86388 15.9563 1.86388 14.757V8.59732C1.86388 7.39841 2.83918 6.42272 4.03848 6.42272H30.9616C32.1612 6.42272 33.1362 7.39841 33.1362 8.59732V14.757H33.1361Z" fill="#2E4A7D"/>
<path d="M29.4431 10.7832H5.45388C4.0766 10.7832 2.95557 11.9041 2.95557 13.2815C2.95557 14.6588 4.0766 15.7798 5.45388 15.7798H29.4418C30.8192 15.7798 31.9404 14.6588 31.9404 13.2815C31.9404 11.9041 30.8204 10.7832 29.4431 10.7832ZM29.4431 13.9158H5.45388C5.10403 13.9158 4.81958 13.6312 4.81958 13.2815C4.81958 12.9318 5.10403 12.6471 5.45388 12.6471H29.4418C29.7919 12.6471 30.0765 12.9317 30.0765 13.2815C30.0765 13.6314 29.7925 13.9158 29.4431 13.9158Z" fill="#2E4A7D"/>
<path d="M20.3215 9.7091H22.8068C23.3219 9.7091 23.7387 9.29165 23.7387 8.77722C23.7387 8.26266 23.3219 7.84521 22.8068 7.84521H20.3215C19.8064 7.84521 19.3896 8.26266 19.3896 8.77722C19.3896 9.29165 19.8064 9.7091 20.3215 9.7091Z" fill="#2E4A7D"/>
<path d="M26.5347 9.7091H29.02C29.5351 9.7091 29.9518 9.29165 29.9518 8.77722C29.9518 8.26266 29.5351 7.84521 29.02 7.84521H26.5347C26.0196 7.84521 25.6028 8.26266 25.6028 8.77722C25.6028 9.29165 26.0196 9.7091 26.5347 9.7091Z" fill="#2E4A7D"/>
<path d="M9.06475 22.0851C10.1342 21.5354 9.19098 19.9264 8.12429 20.4761C6.40744 21.3596 5.67551 22.8073 6.31384 24.6687C6.94176 26.5035 9.0208 28.5191 6.64873 29.8734C5.60479 30.4692 6.54369 32.0796 7.58919 31.4824C9.31423 30.4983 10.0844 29.0105 9.45372 27.0757C8.88794 25.3385 6.74065 23.2811 9.06475 22.0851Z" fill="#2E4A7D"/>
<path d="M19.0057 22.0851C20.0748 21.5354 19.1319 19.9264 18.0652 20.4761C16.3485 21.3596 15.6164 22.8073 16.2547 24.6687C16.8827 26.5035 18.9621 28.5191 16.5896 29.8734C15.5457 30.4692 16.4846 32.0796 17.5301 31.4824C19.2551 30.4983 20.025 29.0105 19.3946 27.0757C18.8285 25.3385 16.6814 23.2811 19.0057 22.0851Z" fill="#2E4A7D"/>
<path d="M28.9464 22.0851C30.0155 21.5354 29.0726 19.9264 28.006 20.4761C26.2889 21.3596 25.5571 22.8073 26.1954 24.6687C26.8234 26.5035 28.9027 28.5191 26.5303 29.8734C25.4868 30.4692 26.4253 32.0796 27.4707 31.4824C29.1958 30.4983 29.9656 29.0105 29.3353 27.0757C28.7692 25.3385 26.6225 23.2811 28.9464 22.0851Z" fill="#2E4A7D"/>
</svg>
