<svg width="35" height="36" viewBox="0 0 35 36" fill="none" xmlns="http://www.w3.org/2000/svg">
<path d="M25.4136 16.945C24.2314 16.9437 23.0626 17.1911 21.9825 17.6709V9.84613C21.9825 9.51178 21.7113 9.24102 21.3772 9.24102H20.6074V7.39388C20.6074 7.05974 20.3365 6.78877 20.0023 6.78877H18.6502V6.06385C18.6502 5.7295 18.3792 5.45874 18.0451 5.45874C17.7107 5.45874 17.44 5.7295 17.44 6.06385V6.78877H16.051C15.7171 6.78877 15.4459 7.05974 15.4459 7.39388V9.24102H14.6378V6.84309C14.6378 6.50874 14.3668 6.23797 14.0327 6.23797H12.4771V4.35736C12.4771 4.02322 12.2062 3.75225 11.872 3.75225H8.39316V2.6454C8.39316 2.31105 8.12239 2.04028 7.78804 2.04028C7.4539 2.04028 7.18272 2.31105 7.18272 2.6454V3.75225H3.84806C3.51371 3.75225 3.24295 4.02322 3.24295 4.35736V6.23797H1.68763C1.3537 6.23797 1.08252 6.50874 1.08252 6.84309V29.0567C1.08252 29.3909 1.3537 29.6618 1.68763 29.6618H18.0682C20.1247 33.2272 24.4443 34.8013 28.3124 33.3946C32.1804 31.988 34.48 28.0069 33.7656 23.9532C33.0514 19.8998 29.5296 16.9447 25.4136 16.945V16.945ZM4.45318 4.96247H11.2669V6.23797H4.45318V4.96247ZM9.72403 28.4516H8.39316V24.7462H9.72403V28.4516ZM7.18272 28.4516H5.99628V24.7462H7.18272V28.4516ZM13.4271 28.4516H10.9343V24.1411C10.9343 23.8067 10.6631 23.5359 10.3291 23.5359H5.39096C5.05703 23.5359 4.78584 23.8067 4.78584 24.1411V28.4516H2.29296V7.4482H13.4276L13.4271 28.4516ZM16.6563 7.99899H19.3972V9.24102H16.6563V7.99899ZM14.6378 28.4516V10.4512H20.7725V18.3316C20.3348 18.6186 19.9246 18.9456 19.5467 19.3077C19.4875 19.289 19.4256 19.2791 19.3633 19.2791H16.0775C15.7432 19.2791 15.4724 19.5503 15.4724 19.8844C15.4724 20.2188 15.7432 20.4895 16.0775 20.4895H18.5213C18.1678 20.982 17.868 21.5107 17.6271 22.067H16.0775C15.7432 22.067 15.4724 22.3379 15.4724 22.6721C15.4724 23.0062 15.7432 23.2772 16.0775 23.2772H17.2088C17.0549 23.865 16.9648 24.4674 16.9403 25.0748H16.0775C15.7432 25.0748 15.4724 25.3456 15.4724 25.6799C15.4724 26.0139 15.7432 26.2851 16.0775 26.2851H16.9759C17.0507 27.0268 17.2242 27.7553 17.4909 28.4516H14.6378ZM25.4138 32.6967C21.3983 32.6971 18.1428 29.4418 18.1428 25.4264C18.1426 21.4109 21.3978 18.1554 25.4134 18.1554C29.429 18.1554 32.6843 21.4105 32.6843 25.4262C32.6798 29.4397 29.4271 32.6922 25.4136 32.6967H25.4138Z" fill="#3C5D95"/>
<path d="M4.19325 13.814H11.5289C11.8631 13.814 12.134 13.543 12.134 13.2086C12.134 12.8747 11.8631 12.6035 11.5289 12.6035H4.19325C3.85911 12.6035 3.58813 12.8747 3.58813 13.2086C3.58813 13.543 3.85911 13.814 4.19325 13.814Z" fill="#3C5D95"/>
<path d="M4.19325 17.1885H11.5289C11.8631 17.1885 12.134 16.9177 12.134 16.5834C12.134 16.2492 11.8631 15.978 11.5289 15.978H4.19325C3.85911 15.978 3.58813 16.2492 3.58813 16.5834C3.58813 16.9177 3.85911 17.1885 4.19325 17.1885Z" fill="#3C5D95"/>
<path d="M4.19325 20.563H11.5289C11.8631 20.563 12.134 20.2922 12.134 19.9579C12.134 19.6238 11.8631 19.3528 11.5289 19.3528H4.19325C3.85911 19.3528 3.58813 19.6238 3.58813 19.9579C3.58813 20.2922 3.85911 20.563 4.19325 20.563Z" fill="#3C5D95"/>
<path d="M4.19325 10.4392H11.5289C11.8631 10.4392 12.134 10.1685 12.134 9.83412C12.134 9.49998 11.8631 9.229 11.5289 9.229H4.19325C3.85911 9.229 3.58813 9.49998 3.58813 9.83412C3.58813 10.1685 3.85911 10.4392 4.19325 10.4392Z" fill="#3C5D95"/>
<path d="M16.0773 17.482H19.2317C19.5658 17.482 19.8368 17.211 19.8368 16.8768C19.8368 16.5425 19.5658 16.2717 19.2317 16.2717H16.0773C15.7429 16.2717 15.4722 16.5425 15.4722 16.8768C15.4722 17.211 15.7429 17.482 16.0773 17.482Z" fill="#3C5D95"/>
<path d="M16.0773 14.5473H19.2317C19.5658 14.5473 19.8368 14.2766 19.8368 13.9422C19.8368 13.6081 19.5658 13.3369 19.2317 13.3369H16.0773C15.7429 13.3369 15.4722 13.6081 15.4722 13.9422C15.4722 14.2766 15.7429 14.5473 16.0773 14.5473Z" fill="#3C5D95"/>
<path d="M28.6476 21.1554C27.7907 20.2962 26.6272 19.8127 25.4134 19.8127C24.1998 19.8127 23.0364 20.2962 22.1792 21.1554C21.3564 21.9831 20.8608 23.0805 20.7841 24.245C20.7429 24.8853 20.8368 25.5272 21.0595 26.129C21.2928 26.7509 21.6497 27.3188 22.1091 27.7982L24.9725 30.848C25.0871 30.9699 25.2467 31.039 25.4136 31.039C25.5808 31.039 25.7404 30.9699 25.855 30.848L28.7182 27.7982C29.1774 27.3188 29.5345 26.7509 29.7673 26.1292C29.9903 25.5274 30.0842 24.8857 30.0429 24.2452C29.9665 23.0807 29.4705 21.9831 28.6476 21.1554V21.1554ZM28.6304 25.7142C28.4531 26.1822 28.1828 26.6095 27.8356 26.9697L25.4134 29.5498L22.9913 26.9697C22.6441 26.6095 22.3736 26.1822 22.1963 25.7142C22.0316 25.271 21.9617 24.7979 21.9914 24.3258C22.0487 23.4529 22.4199 22.6303 23.0366 22.0098C23.6663 21.3782 24.5216 21.0234 25.4134 21.0234C26.3051 21.0234 27.1606 21.3782 27.7901 22.0098C28.4068 22.6303 28.778 23.4529 28.8352 24.3258C28.8649 24.7979 28.795 25.271 28.6304 25.7142V25.7142Z" fill="#3C5D95"/>
<path d="M25.4137 21.8718C24.1348 21.8718 23.0945 22.933 23.0945 24.2369C23.0945 25.5413 24.1348 26.6022 25.4137 26.6022C26.6923 26.6022 27.7326 25.5413 27.7326 24.2369C27.7326 22.933 26.6923 21.8718 25.4137 21.8718V21.8718ZM25.4137 25.3918C24.8022 25.3918 24.3047 24.8738 24.3047 24.2369C24.3047 23.6004 24.8022 23.0821 25.4137 23.0821C26.0249 23.0821 26.5224 23.6004 26.5224 24.2369C26.5224 24.8736 26.0251 25.3918 25.4137 25.3918V25.3918Z" fill="#3C5D95"/>
</svg>
