<svg width="35" height="36" viewBox="0 0 35 36" fill="none" xmlns="http://www.w3.org/2000/svg">
<path d="M34.9239 16.4136C34.5241 12.0689 32.5154 8.03034 29.292 5.08996C26.0685 2.14957 21.8629 0.519531 17.4998 0.519531C13.1367 0.519531 8.93101 2.14957 5.70756 5.08996C2.48412 8.03034 0.475483 12.0689 0.0755999 16.4136C0.0278395 16.939 -0.000233465 17.4698 -0.000233465 18.0072C-0.00312504 20.6173 0.581403 23.1945 1.71003 25.5479C3.13338 28.5291 5.37164 31.0465 8.16589 32.8088C10.9601 34.5711 14.1962 35.5063 17.4998 35.5063C20.8033 35.5063 24.0394 34.5711 26.8336 32.8088C29.6279 31.0465 31.8662 28.5291 33.2895 25.5479C34.4181 23.1945 35.0027 20.6173 34.9998 18.0072C34.9998 17.4698 34.9717 16.939 34.9239 16.4136ZM26.1087 6.24578L26.9888 11.6321L23.3331 13.4602L18.9581 11.2727V7.24182L23.7626 4.83958C24.5869 5.23394 25.3723 5.70474 26.1087 6.24578ZM16.0414 7.24182V11.2727L11.6664 13.4602L8.01076 11.6321L8.89086 6.24578C9.62722 5.70474 10.4127 5.23394 11.237 4.83958L16.0414 7.24182ZM2.91643 18.0072C2.9176 17.1492 2.99434 16.2928 3.14576 15.4482L6.06716 13.9214L10.3762 16.0749L11.5764 22.076L9.69112 24.9041L4.41123 23.2853C4.24097 23.2336 4.06257 23.2139 3.88513 23.2273C3.24379 21.5617 2.91539 19.7921 2.91643 18.0072ZM13.7562 32.1013L11.8761 26.8845L13.9053 23.8406H21.0942L23.1235 26.8845L21.2433 32.1013C18.7902 32.7537 16.2093 32.7537 13.7562 32.1013ZM30.5883 23.2853L25.3095 24.9041L23.4232 22.076L24.6234 16.0749L28.9324 13.9203L31.8538 15.4471C32.3243 18.0595 32.0682 20.751 31.1133 23.2277C30.9363 23.2145 30.7583 23.234 30.5883 23.2853Z" fill="#2E4A7D"/>
</svg>
